<svg width="24" height="24" viewBox="0 0 24 24" fill="none" xmlns="http://www.w3.org/2000/svg">
<path d="M12.1553 2.00033C14.3026 2.00032 15.9858 1.99958 17.2988 2.17611C18.6426 2.35682 19.7029 2.73443 20.5352 3.56673C21.3675 4.39905 21.7451 5.45929 21.9258 6.80306C22.1023 8.11607 22.1016 9.79928 22.1016 11.9466V12.0003H20.7061C20.7061 9.78812 20.7046 8.19885 20.542 6.98959C20.3821 5.80039 20.0787 5.08297 19.5488 4.55306C19.0189 4.02315 18.3015 3.71978 17.1123 3.5599C15.903 3.39733 14.3138 3.39584 12.1016 3.39584C9.88941 3.39584 8.30005 3.39732 7.09082 3.5599C5.90202 3.71978 5.1851 4.02333 4.65527 4.55306C4.12536 5.08298 3.82102 5.80037 3.66113 6.98959C3.54702 7.83846 3.51252 8.87464 3.50195 10.182L3.71191 10.1517C7.74716 9.5723 11.416 11.5183 13.3779 14.6302C12.5757 15.7113 12.1016 17.0507 12.1016 18.5003C12.1016 19.7885 12.4776 20.9884 13.124 21.9984C12.8121 21.999 12.4893 22.0003 12.1553 22.0003H12.0488C9.90148 22.0003 8.21829 22.0001 6.90527 21.8236C5.56135 21.6429 4.50132 21.2653 3.66895 20.4329C2.83658 19.6006 2.45901 18.5405 2.27832 17.1966C2.10179 15.8836 2.10155 14.2004 2.10156 12.0531V11.9466C2.10155 9.79928 2.10179 8.11607 2.27832 6.80306C2.45903 5.4593 2.83664 4.39904 3.66895 3.56673C4.5013 2.73448 5.56143 2.35678 6.90527 2.17611C8.21828 1.99959 9.90151 2.00032 12.0488 2.00033H12.1553ZM15.8232 6.4183C16.8504 6.41855 17.6834 7.25149 17.6836 8.27865C17.6836 9.306 16.8505 10.1397 15.8232 10.14C14.7957 10.14 13.9619 9.30616 13.9619 8.27865C13.9621 7.25134 14.7959 6.4183 15.8232 6.4183Z" fill="white"/>
<path d="M15.1017 18.5101C15.1017 18.1145 15.4162 17.7899 15.822 17.7899H17.8814V15.7203C17.8814 15.3246 18.1959 15 18.5915 15C18.9872 15 19.3118 15.3246 19.3118 15.7203V17.7899H21.3814C21.777 17.7899 22.1017 18.1145 22.1017 18.5101C22.1017 18.9058 21.777 19.2203 21.3814 19.2203H19.3118V21.2899C19.3118 21.6855 18.9973 22 18.5915 22C18.206 22 17.8814 21.6957 17.8814 21.2899V19.2203H15.822C15.4162 19.2203 15.1017 18.9058 15.1017 18.5101Z" fill="white"/>
</svg>
