<svg width="55" height="54" viewBox="0 0 55 54" fill="none" xmlns="http://www.w3.org/2000/svg">
<path d="M41 18C41 20.4853 38.9853 22.5 36.5 22.5C34.0147 22.5 32 20.4853 32 18C32 15.5147 34.0147 13.5 36.5 13.5C38.9853 13.5 41 15.5147 41 18Z" fill="#00DECB"/>
<path fill-rule="evenodd" clip-rule="evenodd" d="M27.6291 2.8125H27.3709C22.177 2.81247 18.1067 2.81245 14.9308 3.23943C11.6802 3.67647 9.11513 4.58849 7.10181 6.60181C5.08849 8.61513 4.17647 11.1802 3.73943 14.4308C3.31245 17.6067 3.31247 21.677 3.3125 26.8709V27.1291C3.31247 32.323 3.31245 36.3933 3.73943 39.5692C4.17647 42.8198 5.08849 45.3849 7.10181 47.3982C9.11513 49.4115 11.6802 50.3235 14.9308 50.7606C18.1067 51.1876 22.177 51.1875 27.3709 51.1875H27.6291C32.823 51.1875 36.8933 51.1876 40.0692 50.7606C43.3198 50.3235 45.8849 49.4115 47.8982 47.3982C49.9115 45.3849 50.8235 42.8198 51.2606 39.5692C51.6876 36.3933 51.6875 32.323 51.6875 27.1291V26.8709C51.6875 21.677 51.6876 17.6067 51.2606 14.4308C50.8235 11.1802 49.9115 8.61513 47.8982 6.60181C45.8849 4.58849 43.3198 3.67647 40.0692 3.23943C36.8933 2.81245 32.823 2.81247 27.6291 2.8125ZM9.48829 8.98829C10.77 7.70657 12.5041 6.97106 15.3805 6.58434C18.3055 6.19109 22.149 6.1875 27.5 6.1875C32.851 6.1875 36.6945 6.19109 39.6195 6.58434C42.4959 6.97106 44.23 7.70657 45.5117 8.98829C46.7934 10.27 47.5289 12.0041 47.9157 14.8805C48.3089 17.8055 48.3125 21.649 48.3125 27C48.3125 28.013 48.3124 28.972 48.3095 29.881L47.8098 29.8118C41.4114 28.9258 35.5561 32.2521 32.5746 37.2658C28.7283 27.5346 18.564 20.8981 7.20665 22.5289L6.69867 22.6022C6.72424 19.4398 6.80828 16.9339 7.08434 14.8805C7.47106 12.0041 8.20657 10.27 9.48829 8.98829Z" fill="#00DECB"/>
</svg>
