<svg width="24" height="24" viewBox="0 0 24 24" fill="none" xmlns="http://www.w3.org/2000/svg">
<path d="M0.890654 7.54688C0.858779 7.54688 0.826436 7.54688 0.793623 7.54173C0.558936 7.5158 0.344149 7.39774 0.196478 7.2135C0.0488069 7.02927 -0.0196618 6.79393 0.00612311 6.55923C0.0633106 6.03235 0.132217 5.52798 0.217529 5.0147V5.00626C0.629561 2.6836 2.69065 0.622508 5.01565 0.211883H5.02456C5.53737 0.126571 6.04269 0.0576645 6.57144 0.000476959C6.80628 -0.0249465 7.0416 0.0439615 7.22563 0.192042C7.40967 0.340122 7.52734 0.555245 7.55276 0.790086C7.57819 1.02493 7.50928 1.26025 7.3612 1.44428C7.21312 1.62832 6.998 1.74599 6.76315 1.77141C6.2719 1.82485 5.80128 1.88907 5.32362 1.96829C4.55394 2.10282 3.78706 2.52376 3.15894 3.15188C2.53081 3.78001 2.1094 4.54688 1.97394 5.31188C1.89472 5.7886 1.83003 6.2597 1.77706 6.75095C1.75368 6.96966 1.65019 7.17198 1.48652 7.31893C1.32286 7.46589 1.11061 7.54709 0.890654 7.54688Z" fill="#00DECB"/>
<path d="M23.1094 7.55437C22.89 7.55415 22.6783 7.47294 22.5151 7.32632C22.3519 7.17969 22.2485 6.97798 22.2248 6.75984C22.1719 6.26859 22.1072 5.7975 22.028 5.32078C21.8906 4.55531 21.4688 3.78843 20.8411 3.16031C20.2134 2.53218 19.4461 2.10937 18.6811 1.97531C18.203 1.89562 17.7323 1.8314 17.2416 1.77843C17.0067 1.75301 16.7916 1.63534 16.6435 1.4513C16.4954 1.26727 16.4265 1.03195 16.452 0.797105C16.4774 0.562264 16.5951 0.347141 16.7791 0.199061C16.9631 0.0509805 17.1984 -0.0179275 17.4333 0.007496C17.9597 0.0642148 18.4645 0.13359 18.9778 0.218902H18.9867C21.3094 0.630934 23.3705 2.69203 23.7811 5.01562V5.02453C23.8664 5.53687 23.9353 6.04218 23.9925 6.5714C24.0169 6.80564 23.9476 7.04002 23.7997 7.22327C23.6517 7.40652 23.4372 7.52371 23.2031 7.54922C23.172 7.55266 23.1407 7.55438 23.1094 7.55437Z" fill="#00DECB"/>
<path d="M17.3363 24.0066C17.1085 24.0061 16.8896 23.9184 16.7246 23.7614C16.5595 23.6045 16.4608 23.3903 16.4488 23.1629C16.4368 22.9355 16.5124 22.7121 16.66 22.5386C16.8076 22.3652 17.0161 22.2549 17.2425 22.2305C17.7342 22.177 18.2049 22.1128 18.6816 22.0336C19.4466 21.8972 20.2139 21.4767 20.8421 20.8481C21.4702 20.2195 21.8906 19.4531 22.0261 18.6881C22.1053 18.2109 22.17 17.7403 22.223 17.2491C22.2356 17.1328 22.2709 17.0201 22.3271 16.9175C22.3832 16.8149 22.459 16.7243 22.5501 16.651C22.6412 16.5777 22.7459 16.523 22.8582 16.4902C22.9704 16.4573 23.088 16.4469 23.2043 16.4595C23.3206 16.472 23.4333 16.5074 23.5359 16.5635C23.6385 16.6197 23.729 16.6955 23.8024 16.7866C23.8757 16.8777 23.9303 16.9824 23.9632 17.0946C23.9961 17.2069 24.0065 17.3245 23.9939 17.4408C23.9367 17.9677 23.8678 18.472 23.7825 18.9853V18.9942C23.3719 21.3169 21.3108 23.378 18.9881 23.7881H18.9792C18.4674 23.873 17.9621 23.9423 17.4347 23.9995C17.402 24.0036 17.3692 24.0059 17.3363 24.0066Z" fill="#00DECB"/>
<path d="M6.66381 24C6.63138 24 6.59899 23.9981 6.56678 23.9944C6.03943 23.9372 5.53553 23.8683 5.02225 23.783H5.01334C2.69068 23.3691 0.629591 21.308 0.218966 18.9844V18.9755C0.132247 18.4641 0.0633407 17.9592 0.00615323 17.4319C-0.0192703 17.197 0.0496377 16.9617 0.197718 16.7777C0.345799 16.5936 0.560922 16.476 0.795763 16.4506C1.0306 16.4251 1.26593 16.494 1.44996 16.6421C1.63399 16.7902 1.75167 17.0053 1.77709 17.2402C1.83006 17.7319 1.89475 18.2025 1.97397 18.6797C2.10943 19.4447 2.53131 20.2116 3.15897 20.8397C3.78662 21.4678 4.55397 21.8906 5.31897 22.0247C5.79568 22.1039 6.26678 22.1686 6.7585 22.2216C6.98582 22.245 7.19544 22.3549 7.34401 22.5285C7.49257 22.7021 7.56871 22.9262 7.55666 23.1544C7.54462 23.3826 7.44532 23.5975 7.27931 23.7545C7.11329 23.9116 6.89327 23.9988 6.66475 23.9981L6.66381 24Z" fill="#00DECB"/>
<path d="M12.0028 17.9784C10.4547 17.979 8.9497 17.4681 7.72175 16.5253C7.62895 16.4541 7.55109 16.3653 7.4926 16.2641C7.43411 16.1628 7.39614 16.051 7.38086 15.935C7.36558 15.8191 7.37329 15.7012 7.40355 15.5882C7.43381 15.4753 7.48603 15.3694 7.55722 15.2766C7.701 15.0891 7.91333 14.9665 8.14752 14.9357C8.26348 14.9204 8.38131 14.9281 8.49428 14.9584C8.60726 14.9886 8.71317 15.0408 8.80597 15.112C9.72305 15.8146 10.8461 16.1954 12.0014 16.1954C13.1567 16.1954 14.2798 15.8146 15.1969 15.112C15.3845 14.9719 15.6197 14.9112 15.8516 14.9432C16.0836 14.9752 16.2936 15.0972 16.4362 15.2829C16.5789 15.4685 16.6427 15.7029 16.6138 15.9352C16.585 16.1676 16.4658 16.3792 16.2821 16.5244C15.0552 17.4679 13.5506 17.9792 12.0028 17.9784Z" fill="#00DECB"/>
<path d="M7.72644 9.32391C7.49023 9.32391 7.2637 9.23008 7.09667 9.06306C6.92965 8.89603 6.83582 8.6695 6.83582 8.43329V7.13251C6.83582 6.8963 6.92965 6.66976 7.09667 6.50274C7.2637 6.33572 7.49023 6.24188 7.72644 6.24188C7.96265 6.24188 8.18918 6.33572 8.35621 6.50274C8.52323 6.66976 8.61707 6.8963 8.61707 7.13251V8.43329C8.61707 8.6695 8.52323 8.89603 8.35621 9.06306C8.18918 9.23008 7.96265 9.32391 7.72644 9.32391Z" fill="#00DECB"/>
<path d="M16.2736 9.32391C16.0374 9.32391 15.8109 9.23008 15.6439 9.06306C15.4768 8.89603 15.383 8.6695 15.383 8.43329V7.13251C15.383 6.8963 15.4768 6.66976 15.6439 6.50274C15.8109 6.33572 16.0374 6.24188 16.2736 6.24188C16.5098 6.24188 16.7364 6.33572 16.9034 6.50274C17.0704 6.66976 17.1642 6.8963 17.1642 7.13251V8.43329C17.1642 8.6695 17.0704 8.89603 16.9034 9.06306C16.7364 9.23008 16.5098 9.32391 16.2736 9.32391Z" fill="#00DECB"/>
<path d="M12 13.4302C11.8206 13.4303 11.6452 13.3762 11.497 13.275C11.3488 13.1738 11.2347 13.0302 11.1695 12.8629C11.1043 12.6957 11.0912 12.5127 11.1318 12.3379C11.1725 12.1631 11.265 12.0046 11.3972 11.8833L12.0094 11.3208L11.1867 9.4805C11.0919 9.26511 11.0861 9.02092 11.1707 8.8013C11.2553 8.58167 11.4234 8.40447 11.6383 8.3084C11.8531 8.21234 12.0973 8.20522 12.3174 8.28862C12.5375 8.37202 12.7156 8.53914 12.8128 8.75347L13.8975 11.1797C13.9737 11.3503 13.9944 11.5405 13.9565 11.7235C13.9187 11.9065 13.8242 12.0729 13.6866 12.1992L12.6019 13.1949C12.4378 13.3459 12.223 13.4299 12 13.4302Z" fill="#00DECB"/>
</svg>
